# xmcd
#
# Track frame offsets: 
#        150
#        5260
#        11642
#        16028
#        24739
#        34441
#        39442
#        44305
#        47576
#        56053
#        61217
#        65245
#        70781
#        74724
#        81329
#        88273
#        91447
#        102032
#        105269
#        110445
#        114051
#        116492
#        126547
#        133497
#        140764
#        153597
#        159385
#        163484
#        169025
#        176255
#        182474
#        187167
#        191461
#        197540
#        207366
#        210614
#        212859
#        217573
#        222737
#        227083
#        229504
#        233469
#        236678
#        242043
#        245302
#        249918
#        253376
#        258878
#        263060
#        267026
#        280596
#        286448
#        292832
#        297691
#        308253
#        318325
#        327026
#        333653
#        342972
#
# Disc length: 4743 seconds
#
# Revision: 0
# Processed by: cddbd v1.5.2PL0 Copyright (c) Steve Scherf et al.
# Submitted via: ExactAudioCopy v0.95a5
#
DISCID=6512853b
DTITLE=Clara Sverner - Guia Prático integral para piano - O mundo sono
DTITLE=ro da infância
DYEAR=1900
DGENRE=Classical
TTITLE0=Acordei de madrugada
TTITLE1=A maré encheu
TTITLE2=A roseira
TTITLE3=Manquinha
TTITLE4=Na corda da viola
TTITLE5=Brinquedo
TTITLE6=Machadinha
TTITLE7=Espanha
TTITLE8=Samba-lelê
TTITLE9=Senhora Dona Viúva
TTITLE10=O pastorzinho
TTITLE11=João Cambuetê
TTITLE12=A freira
TTITLE13=Garibaldi foi à missa
TTITLE14=Ó pião
TTITLE15=O pobre e o rico
TTITLE16=Rosa amarela
TTITLE17=Olha o passarinho
TTITLE18=O gato
TTITLE19=Ó sim
TTITLE20=Os pombinhos
TTITLE21=Você diz que sabe tudo
TTITLE22=Có-có-có
TTITLE23=O bastão ou mia gato
TTITLE24=A condessa
TTITLE25=Sonho de uma criança
TTITLE26=O corcunda
TTITLE27=Caranguejo
TTITLE28=A pombinha voou
TTITLE29=Vamos atrás da serra, oh! calunga!
TTITLE30=No fundo do meu quintal
TTITLE31=vai, abóbora
TTITLE32=Vamos, maruca
TTITLE33=Anda a roda
TTITLE34=O limão
TTITLE35=Carambola
TTITLE36=Pobre cega
TTITLE37=Pai Francisco
TTITLE38=Xô! passarinho
TTITLE39=Sinh'Aninha
TTITLE40=Vestidinho branco
TTITLE41=Laranjeira pequenina
TTITLE42=Pombinho, rolinha
TTITLE43=Ó ciranda, ó cirandinha
TTITLE44=A velha que tinha nove filhas
TTITLE45=Constante
TTITLE46=O castelo
TTITLE47=De flor em flor
TTITLE48=Atché
TTITLE49=nesta rua
TTITLE50=Fui no tororó
TTITLE51=Mariquita muchacha
TTITLE52=No jardim celestial
TTITLE53=O anel
TTITLE54=Nigueninhas
TTITLE55=Pobre cega
TTITLE56=A cotia
TTITLE57=Vida formosa
TTITLE58=Viva o Carnaval
EXTD=
EXTT0=
EXTT1=
EXTT2=
EXTT3=
EXTT4=
EXTT5=
EXTT6=
EXTT7=
EXTT8=
EXTT9=
EXTT10=
EXTT11=
EXTT12=
EXTT13=
EXTT14=
EXTT15=
EXTT16=
EXTT17=
EXTT18=
EXTT19=
EXTT20=
EXTT21=
EXTT22=
EXTT23=
EXTT24=
EXTT25=
EXTT26=
EXTT27=
EXTT28=
EXTT29=
EXTT30=
EXTT31=
EXTT32=
EXTT33=
EXTT34=
EXTT35=
EXTT36=
EXTT37=
EXTT38=
EXTT39=
EXTT40=
EXTT41=
EXTT42=
EXTT43=
EXTT44=
EXTT45=
EXTT46=
EXTT47=
EXTT48=
EXTT49=
EXTT50=
EXTT51=
EXTT52=
EXTT53=
EXTT54=
EXTT55=
EXTT56=
EXTT57=
EXTT58=
PLAYORDER=
